HIERARCHY
ROOT hip
{
  OFFSET 0 0 0
  CHANNELS 6 Xposition Yposition Zposition Zrotation Yrotation Xrotation
  JOINT abdomen
  {
    OFFSET 0 20.6881 -0.73152
    CHANNELS 3 Zrotation Xrotation Yrotation
    JOINT chest
    {
      OFFSET 0 11.7043 -0.48768
      CHANNELS 3 Zrotation Xrotation Yrotation
      JOINT neck
      {
        OFFSET 0 22.1894 -2.19456
        CHANNELS 3 Zrotation Xrotation Yrotation
        JOINT head
        {
          OFFSET -0.24384 7.07133 1.2192
          CHANNELS 3 Zrotation Xrotation Yrotation
          JOINT leftEye
          {
            OFFSET 4.14528 8.04674 8.04672
            CHANNELS 3 Zrotation Xrotation Yrotation
            End Site
            {
              OFFSET 1 0 0
            }
          }
          JOINT rightEye
          {
            OFFSET -3.6576 8.04674 8.04672
            CHANNELS 3 Zrotation Xrotation Yrotation
            End Site
            {
              OFFSET 1 0 0
            }
          }
        }
      }
      JOINT rCollar
      {
        OFFSET -2.68224 19.2634 -4.8768
        CHANNELS 3 Zrotation Xrotation Yrotation
        JOINT rShldr
        {
          OFFSET -8.77824 -1.95073 1.46304
          CHANNELS 3 Zrotation Xrotation Yrotation
          JOINT rForeArm
          {
            OFFSET -28.1742 -1.7115 0.48768
            CHANNELS 3 Zrotation Xrotation Yrotation
            JOINT rHand
            {
              OFFSET -22.5879 0.773209 7.07136
              CHANNELS 3 Zrotation Xrotation Yrotation
              JOINT rThumb1
              {
                OFFSET -1.2192 -0.487915 3.41376
                CHANNELS 3 Zrotation Xrotation Yrotation
                JOINT rThumb2
                {
                  OFFSET -3.37035 -0.52449 3.41376
                  CHANNELS 3 Zrotation Xrotation Yrotation
                  End Site
                  {
                    OFFSET -1.78271 -1.18214 1.43049
                  }
                }
              }
              JOINT rIndex1
              {
                OFFSET -7.75947 0.938293 5.60832
                CHANNELS 3 Zrotation Xrotation Yrotation
                JOINT rIndex2
                {
                  OFFSET -2.54057 -0.884171 1.56538
                  CHANNELS 3 Zrotation Xrotation Yrotation
                  End Site
                  {
                    OFFSET -1.62519 -0.234802 1.16502
                  }
                }
              }
              JOINT rMid1
              {
                OFFSET -8.24714 1.18213 3.41376
                CHANNELS 3 Zrotation Xrotation Yrotation
                JOINT rMid2
                {
                  OFFSET -3.10165 -0.590103 1.0647
                  CHANNELS 3 Zrotation Xrotation Yrotation
                  End Site
                  {
                    OFFSET -2.48547 -0.328903 0.83742
                  }
                }
              }
              JOINT rRing1
              {
                OFFSET -8.82822 0.546677 1.51678
                CHANNELS 3 Zrotation Xrotation Yrotation
                JOINT rRing2
                {
                  OFFSET -2.60934 -0.819778 -0.0198488
                  CHANNELS 3 Zrotation Xrotation Yrotation
                  End Site
                  {
                    OFFSET -2.33842 -0.294052 0.168128
                  }
                }
              }
              JOINT rPinky1
              {
                OFFSET -8.27202 -0.0477905 -0.4584
                CHANNELS 3 Zrotation Xrotation Yrotation
                JOINT rPinky2
                {
                  OFFSET -1.82734 -0.647385 -0.700984
                  CHANNELS 3 Zrotation Xrotation Yrotation
                  End Site
                  {
                    OFFSET -1.69225 -0.51767 -0.607171
                  }
                }
              }
            }
          }
        }
      }
      JOINT lCollar
      {
        OFFSET 2.68224 19.2634 -4.8768
        CHANNELS 3 Zrotation Xrotation Yrotation
        JOINT lShldr
        {
          OFFSET 8.77824 -1.95073 1.46304
          CHANNELS 3 Zrotation Xrotation Yrotation
          JOINT lForeArm
          {
            OFFSET 28.1742 -1.7115 0.48768
            CHANNELS 3 Zrotation Xrotation Yrotation
            JOINT lHand
            {
              OFFSET 22.5879 0.773209 7.07136
              CHANNELS 3 Zrotation Xrotation Yrotation
              JOINT lThumb1
              {
                OFFSET 1.2192 -0.487915 3.41376
                CHANNELS 3 Zrotation Xrotation Yrotation
                JOINT lThumb2
                {
                  OFFSET 3.37035 -0.52449 3.41376
                  CHANNELS 3 Zrotation Xrotation Yrotation
                  End Site
                  {
                    OFFSET 1.78271 -1.18214 1.43049
                  }
                }
              }
              JOINT lIndex1
              {
                OFFSET 7.75947 0.938293 5.60832
                CHANNELS 3 Zrotation Xrotation Yrotation
                JOINT lIndex2
                {
                  OFFSET 2.54057 -0.884171 1.56538
                  CHANNELS 3 Zrotation Xrotation Yrotation
                  End Site
                  {
                    OFFSET 1.62519 -0.234802 1.16502
                  }
                }
              }
              JOINT lMid1
              {
                OFFSET 8.24714 1.18213 3.41376
                CHANNELS 3 Zrotation Xrotation Yrotation
                JOINT lMid2
                {
                  OFFSET 3.10165 -0.590103 1.0647
                  CHANNELS 3 Zrotation Xrotation Yrotation
                  End Site
                  {
                    OFFSET 2.48547 -0.328903 0.83742
                  }
                }
              }
              JOINT lRing1
              {
                OFFSET 8.82822 0.546677 1.51678
                CHANNELS 3 Zrotation Xrotation Yrotation
                JOINT lRing2
                {
                  OFFSET 2.60934 -0.819778 -0.0198488
                  CHANNELS 3 Zrotation Xrotation Yrotation
                  End Site
                  {
                    OFFSET 2.33842 -0.294052 0.168128
                  }
                }
              }
              JOINT lPinky1
              {
                OFFSET 8.27202 -0.0477905 -0.4584
                CHANNELS 3 Zrotation Xrotation Yrotation
                JOINT lPinky2
                {
                  OFFSET 1.82734 -0.647385 -0.700984
                  CHANNELS 3 Zrotation Xrotation Yrotation
                  End Site
                  {
                    OFFSET 1.69225 -0.51767 -0.607171
                  }
                }
              }
            }
          }
        }
      }
    }
  }
  JOINT rButtock
  {
    OFFSET -8.77824 4.35084 1.2192
    CHANNELS 3 Zrotation Xrotation Yrotation
    JOINT rThigh
    {
      OFFSET 0 -1.70687 -2.19456
      CHANNELS 3 Zrotation Xrotation Yrotation
      JOINT rShin
      {
        OFFSET 0 -36.8199 0.73152
        CHANNELS 3 Zrotation Xrotation Yrotation
        JOINT rFoot
        {
          OFFSET 0.73152 -45.1104 -5.12064
          CHANNELS 3 Zrotation Xrotation Yrotation
          End Site
          {
            OFFSET -1.1221 -3.69964 12.103
          }
        }
      }
    }
  }
  JOINT lButtock
  {
    OFFSET 8.77824 4.35084 1.2192
    CHANNELS 3 Zrotation Xrotation Yrotation
    JOINT lThigh
    {
      OFFSET 0 -1.70687 -2.19456
      CHANNELS 3 Zrotation Xrotation Yrotation
      JOINT lShin
      {
        OFFSET 0 -36.8199 0.73152
        CHANNELS 3 Zrotation Xrotation Yrotation
        JOINT lFoot
        {
          OFFSET -0.73152 -45.1104 -5.12064
          CHANNELS 3 Zrotation Xrotation Yrotation
          End Site
          {
            OFFSET 1.1221 -3.69964 12.103
          }
        }
      }
    }
  }
}
MOTION
Frames:	4
Frame Time:	0.00833333
44.6937 85.5269 252.906 0.0 0.0 0.0 2.34101 -0.00222413 0.0637213 0.646596 0.00594991 0.111938 -1.97008e-14 1.59028e-15 1.98785e-16 -5.9477e-14 9.54166e-15 8.15328e-16 -0.0 0.0 0.0 -0.0 0.0 0.0 -9.6431e-15 -6.91087e-17 2.98177e-16 -2.04013e-13 -1.70209e-15 3.77691e-15 -3.54249e-12 9.97104e-13 8.26944e-14 -4.03622e-11 -1.32438e-12 5.56597e-13 -9.52425e-11 -7.06909e-13 1.41853e-12 -1.6449e-10 -1.21815e-12 2.44744e-12 -9.52405e-11 -7.06481e-13 1.40899e-12 7.73091 5.47488 0.417314 -9.52441e-11 -7.07176e-13 1.41217e-12 2.90554 0.965183 0.102902 -9.52395e-11 -7.07375e-13 1.41535e-12 10.2786 0.731801 0.0259123 -9.52465e-11 -7.04095e-13 1.41853e-12 2.22167 -0.733487 -0.20892 -9.83844e-15 -6.91087e-17 4.96962e-17 -2.06395e-13 -1.37907e-15 1.78906e-15 -3.51039e-12 -1.10743e-12 9.85972e-14 -4.03599e-11 7.95039e-13 5.56597e-13 -9.51686e-11 -6.77629e-13 1.41853e-12 -1.64333e-10 -1.16726e-12 2.4538e-12 -9.51713e-11 -6.79048e-13 1.42807e-12 -7.73091 5.47488 -0.417314 -9.51676e-11 -6.78452e-13 1.41535e-12 -2.90554 0.965183 -0.102902 -9.51705e-11 -6.78055e-13 1.41932e-12 -10.2786 0.731801 -0.0259123 -9.5158e-11 -6.72687e-13 1.41535e-12 -2.22167 -0.733487 0.20892 -2.03217e-16 0.0 -3.88251e-19 2.21555 -8.02973 -0.231364 0.00607129 8.97367 0.152068 -0.477759 -0.951451 0.0348714 2.03217e-16 0.0 3.88251e-19 1.35213 -1.92788 -0.00535909 0.00846606 -2.07867 0.0694555 0.423791 3.99898 -0.127279
45.5727 84.3031 240.921 -178.542 1.9668 179.681 2.82678 0.0366039 1.5611 0.420882 -2.22481 0.587531 -2.19136 2.55635 -0.73814 3.6809 -2.62657 -1.25118 -0.0 0.0 0.0 -0.0 0.0 0.0 2.68022e-15 1.36406e-14 -3.89975e-14 21.7388 10.5532 -2.782 -5.3365 -2.69825 8.01667 0.0168803 2.88291 0.403317 2.21382e-10 -3.27495e-11 -1.95183e-10 3.81926e-10 -5.1864e-11 -3.40793e-10 2.21384e-10 -3.27501e-11 -1.9519e-10 7.73091 5.47488 0.417314 2.21382e-10 -3.27519e-11 -1.95185e-10 2.90554 0.965183 0.102902 2.21389e-10 -3.27497e-11 -1.95186e-10 10.2786 0.731801 0.0259123 2.21378e-10 -3.27465e-11 -1.95183e-10 2.22167 -0.733487 -0.20892 2.53184e-15 1.36415e-14 -3.92177e-14 -22.2438 10.1583 3.05666 5.88463 -3.11743 -8.65837 -0.0191797 3.07487 -0.429905 -2.96824e-10 -2.82346e-10 -7.56434e-11 -5.14135e-10 -4.86968e-10 -1.27769e-10 -2.96832e-10 -2.82352e-10 -7.56313e-11 -7.73091 5.47488 -0.417314 -2.96825e-10 -2.82351e-10 -7.56445e-11 -2.90554 0.965183 -0.102902 -2.96829e-10 -2.82351e-10 -7.56412e-11 -10.2786 0.731801 -0.0259123 -2.96815e-10 -2.82346e-10 -7.56433e-11 -2.22167 -0.733487 0.20892 -2.03217e-16 0.0 -3.88251e-19 3.47777 -9.07892 4.91804 0.0235149 15.1503 0.268926 -1.8821 -5.03062 -8.71533 2.03217e-16 0.0 3.88251e-19 -0.714943 -4.00812 -5.49172 -0.0438863 5.69685 -0.149632 1.36853 -3.02545 5.83436
45.4139 84.2805 240.893 -178.829 2.2548 179.865 3.35747 0.0764463 3.14447 0.219038 -4.57895 1.09304 -4.43121 5.25238 -1.52363 7.43847 -5.38724 -2.58585 -0.0 0.0 0.0 -0.0 0.0 0.0 1.62255e-14 2.87926e-14 -8.20608e-14 45.9158 21.6388 -6.05134 -10.167 -5.37604 16.5504 -0.00963938 5.93481 0.833751 5.68943e-10 -7.02151e-11 -4.09998e-10 9.81734e-10 -1.11418e-10 -7.15853e-10 5.68946e-10 -7.02168e-11 -4.10004e-10 7.73091 5.47488 0.417314 5.68945e-10 -7.02198e-11 -4.09997e-10 2.90554 0.965183 0.102902 5.68956e-10 -7.02151e-11 -4.10001e-10 10.2786 0.731801 0.0259123 5.6894e-10 -7.02119e-11 -4.09998e-10 2.22167 -0.733487 -0.20892 1.61277e-14 2.87943e-14 -8.22503e-14 -47.0147 20.8187 6.62613 11.0943 -6.17715 -17.8949 0.0110594 6.33796 -0.89035 -5.19921e-10 -5.90391e-10 -1.58045e-10 -9.011e-10 -1.01822e-09 -2.66915e-10 -5.19935e-10 -5.90402e-10 -1.5803e-10 -7.73091 5.47488 -0.417314 -5.19924e-10 -5.90401e-10 -1.58044e-10 -2.90554 0.965183 -0.102902 -5.19929e-10 -5.90402e-10 -1.58041e-10 -10.2786 0.731801 -0.0259123 -5.19914e-10 -5.90398e-10 -1.58041e-10 -2.22167 -0.733487 0.20892 -2.03217e-16 0.0 -3.88251e-19 5.04782 -10.0603 10.4331 0.0128175 21.6445 0.40319 -4.72264 -9.00586 -18.1709 2.03217e-16 0.0 3.88251e-19 -3.317 -6.13115 -11.3351 -0.0331576 13.9309 -0.391682 3.96934 -10.2387 12.3332
45.2013 84.262 240.873 -179.095 2.3171 179.955 3.79224 0.11394 4.55588 0.0812215 -6.68426 1.54791 -6.37501 7.66395 -2.23217 10.696 -7.86461 -3.78526 -0.0 0.0 0.0 -0.0 0.0 0.0 2.73268e-14 4.10601e-14 -1.17589e-13 68.723 31.3346 -9.61807 -13.8023 -7.46221 24.2415 -0.0723017 8.64702 1.22231 8.54631e-10 -9.68346e-11 -5.88385e-10 1.47476e-09 -1.53156e-10 -1.02727e-09 8.54634e-10 -9.68373e-11 -5.88389e-10 7.73091 5.47488 0.417314 8.54634e-10 -9.68413e-11 -5.88381e-10 2.90554 0.965183 0.102902 8.54647e-10 -9.68343e-11 -5.88388e-10 10.2786 0.731801 0.0259123 8.54628e-10 -9.68312e-11 -5.88385e-10 2.22167 -0.733487 -0.20892 2.72724e-14 4.10626e-14 -1.17752e-13 -70.3962 30.1 10.4477 14.9092 -8.49962 -26.2463 0.0824209 9.22253 -1.30473 -7.00134e-10 -8.45682e-10 -2.29767e-10 -1.21374e-09 -1.45857e-09 -3.88215e-10 -7.00153e-10 -8.45697e-10 -2.2975e-10 -7.73091 5.47488 -0.417314 -7.00139e-10 -8.45696e-10 -2.29764e-10 -2.90554 0.965183 -0.102902 -7.00145e-10 -8.45697e-10 -2.29762e-10 -10.2786 0.731801 -0.0259123 -7.00128e-10 -8.45693e-10 -2.29761e-10 -2.22167 -0.733487 0.20892 -2.03217e-16 0.0 -3.88251e-19 6.56319 -10.8858 15.3091 -0.027221 27.5031 0.53927 -8.34905 -11.9786 -26.7411 2.03217e-16 0.0 3.88251e-19 -6.03439 -7.8861 -16.5853 0.0395461 21.2468 -0.628199 7.7088 -16.2848 18.5
